<?xml version="1.0" standalone="no"?>
<!DOCTYPE svg PUBLIC "-//W3C//DTD SVG 20010904//EN"
 "http://www.w3.org/TR/2001/REC-SVG-20010904/DTD/svg10.dtd">
<svg version="1.0" xmlns="http://www.w3.org/2000/svg"
 width="700.000000pt" height="700.000000pt" viewBox="0 0 700.000000 700.000000"
 preserveAspectRatio="xMidYMid meet">
<metadata>
Created by potrace 1.14, written by Peter Selinger 2001-2017
</metadata>
<g transform="translate(0.000000,700.000000) scale(0.100000,-0.100000)"
fill="#000000" stroke="none">
<path d="M3300 3984 c0 -1792 -1 -1886 -17 -1879 -55 21 -379 98 -503 119
-259 44 -350 51 -670 51 -233 0 -337 -5 -440 -18 -197 -26 -424 -71 -595 -118
-210 -57 -251 -54 -309 25 -21 27 -21 30 -26 1714 -2 928 -7 1593 -10 1479
l-5 -209 -39 -13 c-49 -17 -103 -68 -127 -120 -18 -39 -19 -111 -19 -1960 0
-1844 1 -1922 19 -1961 23 -49 88 -107 140 -122 49 -15 2588 -17 2640 -2 49
14 97 49 123 92 13 21 30 37 38 37 8 0 25 -16 38 -37 26 -43 74 -78 123 -92
52 -15 2591 -13 2640 2 52 15 117 73 140 122 18 39 19 117 19 1961 0 1849 -1
1921 -19 1960 -24 52 -78 103 -127 120 l-39 13 -5 204 c-3 111 -8 -554 -10
-1479 -5 -1679 -5 -1682 -26 -1709 -57 -77 -100 -82 -295 -30 -369 98 -669
137 -1054 137 -324 -1 -579 -27 -875 -91 -88 -20 -268 -66 -297 -77 -11 -4
-13 359 -13 1881 0 1037 -2 1886 -5 1886 -12 0 -133 -64 -162 -87 l-33 -24
-32 24 c-30 23 -151 87 -163 87 -3 0 -5 -849 -5 -1886z"/>
<path d="M1740 5279 c-195 -18 -600 -102 -637 -131 -18 -14 -16 -93 1 -107 11
-10 44 -5 153 22 356 90 701 117 1054 82 252 -24 439 -64 688 -148 148 -49
154 -50 167 -32 19 26 17 79 -3 98 -46 40 -423 150 -643 186 -246 40 -542 51
-780 30z"/>
<path d="M4705 5279 c-141 -13 -338 -48 -480 -84 -154 -40 -385 -120 -397
-137 -13 -22 -9 -85 7 -98 13 -11 42 -4 168 38 245 82 439 124 685 147 356 34
680 10 1030 -76 185 -46 192 -45 192 28 0 41 -2 45 -35 59 -99 41 -427 105
-635 124 -133 12 -404 11 -535 -1z"/>
<path d="M1780 4770 c-247 -22 -660 -108 -682 -144 -14 -20 -8 -83 8 -97 13
-10 37 -7 142 19 292 73 474 96 772 95 378 0 637 -43 998 -166 141 -47 155
-46 160 21 4 52 -5 57 -161 111 -216 74 -403 118 -631 146 -150 19 -466 27
-606 15z"/>
<path d="M4800 4773 c-279 -20 -553 -74 -803 -159 -171 -59 -179 -64 -175
-116 5 -67 18 -69 175 -15 564 192 1154 216 1735 70 122 -30 149 -34 162 -24
16 14 22 77 8 97 -14 23 -246 82 -446 114 -210 33 -470 47 -656 33z"/>
<path d="M1845 4260 c-71 -4 -168 -13 -215 -19 -192 -26 -495 -96 -526 -122
-14 -12 -19 -65 -8 -93 8 -20 44 -20 109 -1 88 27 326 73 465 90 174 21 517
21 695 0 232 -27 477 -84 683 -159 111 -40 132 -35 132 33 0 42 -18 56 -120
94 -369 135 -810 200 -1215 177z"/>
<path d="M4805 4260 c-159 -9 -273 -24 -430 -56 -227 -47 -516 -138 -542 -172
-14 -17 -17 -60 -7 -86 9 -25 34 -20 213 38 319 104 599 147 946 147 285 0
518 -29 777 -97 130 -34 142 -32 146 28 4 60 -6 66 -163 107 -298 76 -635 108
-940 91z"/>
<path d="M1700 3736 c-213 -25 -563 -100 -597 -128 -17 -14 -17 -92 1 -107 10
-9 46 -3 152 24 293 74 544 101 854 92 349 -10 696 -78 1008 -199 30 -12 35
-11 48 6 15 21 19 73 6 93 -4 7 -48 27 -97 46 -185 70 -433 133 -645 162 -157
22 -577 28 -730 11z"/>
<path d="M4695 3739 c-136 -13 -292 -39 -425 -71 -164 -38 -428 -128 -442
-151 -12 -19 -9 -72 6 -92 8 -11 20 -16 32 -12 10 3 73 24 139 47 281 97 570
148 885 157 309 9 574 -20 859 -93 103 -27 136 -32 147 -23 18 15 18 93 1 107
-38 32 -432 112 -642 132 -126 11 -442 11 -560 -1z"/>
<path d="M1755 3229 c-142 -13 -328 -45 -489 -85 -176 -44 -176 -44 -176 -98
0 -71 9 -73 172 -32 593 148 1172 124 1750 -71 154 -53 168 -51 168 18 0 49
-14 58 -162 111 -385 135 -847 193 -1263 157z"/>
<path d="M4715 3229 c-220 -19 -495 -77 -718 -153 -163 -56 -177 -65 -177
-115 0 -69 14 -71 168 -18 574 195 1163 219 1750 71 164 -41 172 -39 172 33 0
40 -3 45 -32 58 -54 22 -274 73 -408 94 -246 40 -514 50 -755 30z"/>
</g>
</svg>
